<svg width="16" height="16" version="1.0" viewBox="0 0 2.4 2.4" xml:space="preserve" xmlns="http://www.w3.org/2000/svg"><path d="M.85.6a.1.1 0 0 0-.1.1v1c0 .09.11.14.18.07l.12-.27h.3l.12.27a.1.1 0 0 0 .18-.07v-1a.1.1 0 0 0-.18-.07L1.35.9h-.3L.93.63A.1.1 0 0 0 .85.6z" fill="#fc7f7f"/><path d="M2.02.37c.67.83 0 1.66 0 1.66" fill="none" stroke-linecap="round" stroke-linejoin="round" stroke-width=".16" stroke="#fc7f7f"/><path d="M1.88.67c.44.53 0 1.06 0 1.06M.38.37c-.67.83 0 1.66 0 1.66" fill="none" stroke-linecap="round" stroke-linejoin="round" stroke-width=".16" stroke="#fc7f7f"/><path d="M.53.67c-.45.53 0 1.06 0 1.06" fill="none" stroke-linecap="round" stroke-linejoin="round" stroke-width=".16" stroke="#fc7f7f"/></svg>